<svg viewBox="0 0 320 240" width="320" height="240" fill="none" xmlns="http://www.w3.org/2000/svg">
  <g id="house-graphic">
    <rect x="110" y="26" width="18" height="32" fill="#6B21A8" stroke="#EAB308" stroke-width="3.5" stroke-linejoin="round" />
    <path d="M 160 20 L 235 80 L 218 80 L 218 120 L 102 120 L 102 80 L 85 80 Z" fill="#FFFFFF" stroke="#EAB308" stroke-width="5" stroke-linejoin="round" />
    <path d="M 160 28 L 225 80 L 95 80 Z" fill="#6B21A8" stroke="#EAB308" stroke-width="2.5" stroke-linejoin="round" />
    <rect x="116" y="62" width="88" height="52" rx="4" fill="#FFFFFF" stroke="#6B21A8" stroke-width="3.5" />
    <g transform="translate(122, 68)">
      <path d="M 6 6 L 22 6 C 28 6 32 9 32 14 C 32 18 29 20 25 21 C 30 22 34 25 34 30 C 34 36 28 39 22 39 L 6 39 Z" fill="#6B21A8" />
      <rect x="12" y="10" width="6" height="7" fill="#FFFFFF" rx="1" />
      <rect x="20" y="10" width="6" height="7" fill="#FFFFFF" rx="1" />
      <rect x="12" y="27" width="6" height="8" fill="#FFFFFF" rx="1" />
      <rect x="20" y="27" width="6" height="8" fill="#FFFFFF" rx="1" />
      <path d="M 38 6 L 45 6 L 51 24 L 57 6 L 64 6 L 64 39 L 57 39 L 57 17 L 51 34 L 45 34 L 39 17 L 39 39 L 38 39 Z" fill="#6B21A8" />
      <path d="M 69 6 L 76 6 L 76 20 L 85 20 L 85 6 L 92 6 L 92 39 L 85 39 L 85 26 L 76 26 L 76 39 L 69 39 Z" fill="#6B21A8" />
    </g>
    <path d="M 52 118 C 72 116 88 126 112 134 C 145 145 180 143 230 114 C 238 109 246 115 241 123 C 222 148 182 168 135 162 C 98 157 72 144 52 132 Z" fill="#6B21A8" stroke="#EAB308" stroke-width="3.5" stroke-linejoin="round" />
    <circle cx="232" cy="118" r="9" fill="none" stroke="#6B21A8" stroke-width="4" />
    <circle cx="232" cy="118" r="9" fill="none" stroke="#EAB308" stroke-width="1.5" />
    <path d="M 232 127 L 232 176 L 243 176 L 243 164 L 251 164 L 251 152 L 243 152 L 243 140 Z" fill="#6B21A8" stroke="#EAB308" stroke-width="2.5" stroke-linejoin="round" />
  </g>
  <g id="text-brand">
    <text x="20" y="206" font-family="'Plus Jakarta Sans', Arial, sans-serif" font-weight="900" font-size="34" fill="#581C87" letter-spacing="0.5">BOOK</text>
    <g transform="translate(132, 172)">
      <rect x="0" y="0" width="46" height="38" rx="4" fill="#DC2626" />
      <path d="M 7 12 L 23 3 L 39 12" stroke="#FFFFFF" stroke-width="3.5" stroke-linecap="round" stroke-linejoin="round" fill="none" />
      <text x="23" y="28" font-family="'Plus Jakarta Sans', Arial, sans-serif" font-weight="900" font-size="16" fill="#FFFFFF" text-anchor="middle">MY</text>
    </g>
    <text x="186" y="206" font-family="'Plus Jakarta Sans', Arial, sans-serif" font-weight="900" font-size="34" fill="#581C87" letter-spacing="0.5">HOMEZ</text>
    <text x="160" y="232" font-family="'Plus Jakarta Sans', Arial, sans-serif" font-weight="800" font-size="12" fill="#0F172A" text-anchor="middle" letter-spacing="2.2">YOUR HAPPY HOME PARTNER</text>
  </g>
</svg>
